# xmcd CD database file
#
# Track frame offsets:
#	150
#	21671
#	44254
#	63225
#	88983
#	119492
#	147144
#	160449
#	171488
#	184657
#	197854
#	230634
#	255850
#	272359
#	288586
#	307300
#	330408
#
# Disc length: 4730 seconds
#
# Revision: 0
# Processed by: cddbd v1.5.2PL0 Copyright (c) Steve Scherf et al.
# Submitted via: CDex 1.70beta2
#
DISCID=03127811
DTITLE=Oscar Peterson - Piano Power - CD 4 - The Song Is You
DYEAR=2005
DGENRE=Jazz
TTITLE0=That Old Black Magic
TTITLE1=Tenderly
TTITLE2=Sushi Blues
TTITLE3=Alone Together
TTITLE4=Swingin' Till The Girls Come Home
TTITLE5=Tea For Two
TTITLE6=Without A Song
TTITLE7=The Song Is You
TTITLE8=The Lady Is A Tramp
TTITLE9=Blue Moon
TTITLE10=Lover
TTITLE11=I Want To Be Happy
TTITLE12=Should I
TTITLE13=Nuages
TTITLE14=I Only Have Eyes For You
TTITLE15=I Gotta Right To Sing The Blues
TTITLE16=I Can't Give You Anything But Love
EXTD=YEAR: 2005
EXTT0=
EXTT1=
EXTT2=
EXTT3=
EXTT4=
EXTT5=
EXTT6=
EXTT7=
EXTT8=
EXTT9=
EXTT10=
EXTT11=
EXTT12=
EXTT13=
EXTT14=
EXTT15=
EXTT16=
PLAYORDER=
